<?xml version="1.0" encoding="UTF-8" standalone="no"?>
<!-- Created with Inkscape (http://www.inkscape.org/) -->

<svg
   version="1.1"
   id="svg1"
   width="512"
   height="512"
   viewBox="0 0 512 512"
   sodipodi:docname="clash-lite.svg"
   inkscape:version="1.3.2 (091e20e, 2023-11-25, custom)"
   xml:space="preserve"
   xmlns:inkscape="http://www.inkscape.org/namespaces/inkscape"
   xmlns:sodipodi="http://sodipodi.sourceforge.net/DTD/sodipodi-0.dtd"
   xmlns:xlink="http://www.w3.org/1999/xlink"
   xmlns="http://www.w3.org/2000/svg"
   xmlns:svg="http://www.w3.org/2000/svg"><defs
     id="defs1"><linearGradient
       id="linearGradient179"
       inkscape:collect="always"><stop
         style="stop-color:#ffffff;stop-opacity:1;"
         offset="0"
         id="stop179" /><stop
         style="stop-color:#f2f2f7;stop-opacity:1;"
         offset="1"
         id="stop180" /></linearGradient><linearGradient
       inkscape:collect="always"
       xlink:href="#linearGradient179"
       id="linearGradient180"
       x1="-1.186036"
       y1="510.81415"
       x2="1022.8143"
       y2="510.81415"
       gradientUnits="userSpaceOnUse"
       gradientTransform="matrix(0,0.99805067,-0.99805071,0,1.7786709,205.26148)" /></defs><sodipodi:namedview
     id="namedview1"
     pagecolor="#ffffff"
     bordercolor="#000000"
     borderopacity="0.25"
     inkscape:showpageshadow="2"
     inkscape:pageopacity="0.0"
     inkscape:pagecheckerboard="true"
     inkscape:deskcolor="#d1d1d1"
     showgrid="false"
     inkscape:zoom="0.5"
     inkscape:cx="-596"
     inkscape:cy="89"
     inkscape:window-width="2560"
     inkscape:window-height="1494"
     inkscape:window-x="-11"
     inkscape:window-y="-11"
     inkscape:window-maximized="1"
     inkscape:current-layer="svg1"
     showborder="false" /><g
     inkscape:groupmode="layer"
     inkscape:label="Image"
     id="g1"><g
       style="fill:none;stroke:#000000;stroke-width:2;stroke-dasharray:none;stroke-opacity:0.03"
       id="g177"
       transform="matrix(0.49999984,0,0,0.49999984,510.01988,-101.53985)"
       inkscape:export-filename="clash-lite.svg"
       inkscape:export-xdpi="96"
       inkscape:export-ydpi="96"><path
         d="m -646.76863,1226.0817 h 277.45809 c 14.22222,0 28.43447,0.01 42.64671,-0.08 11.96663,-0.07 23.94324,-0.1996 35.90986,-0.5289 26.08905,-0.7087 52.39767,-2.2357 78.18732,-6.8766 26.16889,-4.7008 50.52134,-12.3859 74.2949,-24.4822 23.36437,-11.8968 44.742321,-27.4464 63.286104,-45.9802 18.543782,-18.5338 34.083432,-39.922 45.980196,-63.2864 12.106255,-23.7735 19.7812653,-48.126 24.4820841,-74.2949 4.63095532,-25.79962 6.1679534,-52.10824 6.8765694,-78.1873 0.3193762,-11.96663 0.4591033,-23.93325 0.5289669,-35.90986 0.079844,-14.22222 0.079844,-28.43446 0.079844,-42.64671 V 576.35065 c 0,-14.22222 0.00998,-28.43446 -0.079844,-42.64671 C 2.8123068,521.73732 2.6825603,509.76071 2.3532035,497.79409 1.6445875,471.70504 0.11756993,445.39643 -4.5233659,419.6068 -9.2241847,393.43791 -16.909175,369.08547 -29.00545,345.3119 c -11.896764,-23.36437 -27.446394,-44.74231 -45.980196,-63.28609 -18.533802,-18.54377 -39.921734,-34.08342 -63.286104,-45.98018 -23.77356,-12.10636 -48.12601,-19.78138 -74.2949,-24.48217 -25.79963,-4.63096 -52.10825,-6.16795 -78.18732,-6.87656 -11.96662,-0.31937 -23.93325,-0.4591 -35.90986,-0.52896 -14.22222,-0.0798 -28.43447,-0.0798 -42.64671,-0.0798 h -277.45809 c -14.22223,0 -28.43447,-0.01 -42.64672,0.0798 -11.96662,0.0699 -23.94323,0.19961 -35.90985,0.52896 -26.08905,0.70861 -52.39766,2.23562 -78.1873,6.87656 -26.16889,4.70079 -50.52133,12.38579 -74.29489,24.48217 -23.36437,11.89676 -44.74262,27.44639 -63.2864,45.98018 -18.54378,18.5338 -34.08343,39.92172 -45.98019,63.28609 -12.10639,23.77357 -19.78142,48.12601 -24.48222,74.2949 -4.631,25.79961 -6.168,52.10822 -6.8766,78.18729 -0.3193,11.96662 -0.4591,23.93325 -0.5289,35.90985 -0.08,14.22223 -0.08,28.43447 -0.08,42.64671 v 277.45808 c 0,14.22223 -0.01,28.43447 0.08,42.64671 0.07,11.96663 0.1996,23.94323 0.5289,35.90986 0.7086,26.08904 2.2357,52.39766 6.8766,78.1873 4.7008,26.1689 12.38581,50.5214 24.48222,74.2949 11.89676,23.3644 27.44639,44.7426 45.98019,63.2864 18.5338,18.5438 39.92203,34.0834 63.2864,45.9802 23.77356,12.1063 48.126,19.7814 74.29489,24.4822 25.79962,4.6309 52.10823,6.1679 78.1873,6.8766 11.96662,0.3193 23.93325,0.4591 35.90985,0.5289 14.22223,0.08 28.43448,0.08 42.64672,0.08 z"
         fill="#606060"
         style="fill:url(#linearGradient180);stroke:#000000;stroke-width:1.9961;stroke-dasharray:none;stroke-opacity:0.03"
         id="path1"
         inkscape:label="path1"
         sodipodi:nodetypes="ssccccsccccssccccsccccssccccsccccssccccsccccs" /></g></g><path
     style="fill:#000000;stroke-width:0.251266"
     d="m 110.24746,404.93034 c -3.38856,-1.09788 -4.64636,-5.80302 -2.28787,-8.55838 0.4815,-0.56254 1.2316,-1.20764 1.66687,-1.43355 0.6516,-0.33821 7.39004,-2.71926 13.73162,-4.85211 0.76008,-0.25564 3.64336,-1.27359 6.4073,-2.26213 2.76393,-0.98851 5.59067,-1.97327 6.28167,-2.18835 1.93597,-0.6026 4.54133,-1.48006 10.42756,-3.512 2.97121,-1.02568 7.09826,-2.43855 9.17121,-3.13972 2.07295,-0.7012 3.88854,-1.3692 4.03466,-1.48449 0.14613,-0.11529 0.88108,-0.37814 1.63323,-0.58412 1.20615,-0.33029 4.40179,-1.41082 17.80881,-6.02153 3.75564,-1.29159 4.65399,-1.38276 6.29387,-0.63893 2.20142,0.99855 3.11249,2.46408 3.07855,4.95211 -0.0259,1.90446 -0.78399,3.38932 -2.24154,4.39095 -0.52808,0.36287 -4.11591,1.72253 -7.99358,3.02924 -3.86952,1.30396 -7.60083,2.59747 -8.29181,2.87446 -0.69097,0.27699 -4.30921,1.5317 -8.04054,2.78823 -7.37416,2.4833 -13.38261,4.56851 -14.57343,5.05767 -0.4146,0.17031 -1.43223,0.51725 -2.26141,0.77101 -0.82917,0.25372 -3.1471,1.02246 -5.15097,1.70824 -8.79719,3.01071 -18.38509,6.32153 -20.35258,7.02797 -1.17467,0.42174 -2.94658,1.05761 -3.93757,1.41297 -1.9801,0.71009 -4.3576,1.00153 -5.40405,0.66246 z m 287.61925,-0.15578 c -0.82917,-0.20588 -2.29908,-0.70976 -3.26646,-1.11973 -1.90557,-0.80761 -13.54555,-4.8593 -15.55518,-5.4145 -0.67818,-0.18738 -2.09154,-0.67624 -3.14082,-1.08635 -1.04931,-0.41015 -3.09508,-1.13812 -4.54614,-1.61774 -1.45106,-0.47962 -4.61702,-1.56681 -7.03548,-2.416 -10.06656,-3.53464 -12.84471,-4.4779 -17.83991,-6.05705 -1.45106,-0.45874 -3.09058,-1.03274 -3.64336,-1.27553 -0.55279,-0.24282 -1.51388,-0.61078 -2.13578,-0.8177 -8.12154,-2.70224 -14.56726,-5.06216 -15.25111,-5.58377 -1.29648,-0.98886 -1.94041,-2.44662 -1.95133,-4.41762 -0.008,-1.46784 0.085,-1.80879 0.75565,-2.76393 0.89192,-1.27033 2.35691,-2.15835 3.91247,-2.37155 1.2037,-0.165 1.2651,-0.14664 12.28306,3.67086 3.24762,1.12523 7.14854,2.44168 8.66869,2.92541 1.52017,0.48373 2.99007,0.98589 3.26647,1.1159 0.54503,0.2564 5.96188,2.14033 12.94023,4.50051 2.41843,0.81798 5.69747,1.95155 7.28674,2.51911 1.58924,0.56752 4.47253,1.54284 6.40727,2.16734 1.93476,0.62451 3.74388,1.22776 4.02027,1.34056 1.46976,0.59988 6.46311,2.36327 10.67883,3.77126 5.56083,1.85718 8.69441,3.07155 9.48817,3.677 1.10384,0.84195 2.06441,2.87564 2.06764,4.37758 0.003,1.5544 -0.9994,3.51082 -2.2401,4.37061 -1.21379,0.84118 -3.08182,1.02377 -5.16982,0.50533 z M 254.57037,357.65447 c -1.41107,-0.71715 -1.68426,-1.11406 -5.3224,-7.73156 -2.8719,-5.22382 -3.08543,-5.70595 -3.07433,-6.94166 0.0157,-1.73861 0.7719,-3.20296 2.11269,-4.09077 l 1.04395,-0.69125 7.0574,-0.0735 c 7.00843,-0.0731 7.06523,-0.0694 8.18513,0.52204 1.60494,0.84763 2.62478,2.55401 2.59884,4.34831 -0.0181,1.24326 -0.2778,1.81171 -3.40329,7.44584 -2.85965,5.15486 -3.54487,6.2133 -4.4232,6.83221 -1.41708,0.99857 -3.26837,1.14606 -4.77479,0.38042 z m -146.91644,-2.21599 c -1.35864,-0.78033 -2.24865,-2.18436 -2.52664,-3.98586 -0.285,-1.847 1.11391,-4.42551 2.8935,-5.33338 0.94522,-0.48224 1.77501,-0.4941 38.74329,-0.55442 l 37.77739,-0.0617 1.00507,0.5323 c 2.04576,1.0834 2.9868,2.64346 3.00299,4.97833 0.0108,1.55301 -0.0768,1.8907 -0.7484,2.88539 -0.41833,0.61958 -1.20982,1.38094 -1.75886,1.69192 l -0.99827,0.56539 -38.06686,0.002 -38.06688,0.002 z m 218.4812,0.16094 c -1.78795,-0.91347 -2.55957,-2.09777 -2.70671,-4.15439 -0.14012,-1.95848 0.24805,-3.08985 1.48426,-4.32608 1.64707,-1.64706 -1.5154,-1.52732 40.0964,-1.51796 l 37.75841,0.008 1.14046,0.53608 c 1.30299,0.61247 2.42798,2.06354 2.86866,3.7001 0.57573,2.13808 -0.7781,4.89699 -2.8691,5.84676 -0.9706,0.44092 -2.68654,0.46151 -38.84064,0.46679 l -37.82519,0.005 z M 137.05211,331.51701 c -5.95865,-1.28723 -8.57478,-1.87445 -12.8146,-2.87639 -1.93475,-0.45725 -5.89219,-1.36275 -8.79433,-2.01228 -6.51551,-1.45828 -7.65614,-1.99611 -8.40069,-3.96118 -0.18811,-0.49654 -0.26799,-29.3382 -0.26799,-96.76974 0,-82.06815 0.0515,-96.18582 0.35408,-96.90969 0.50401,-1.20613 1.32365,-2.17438 2.24358,-2.65035 0.7564,-0.39137 7.24535,-1.24258 14.0878,-1.84803 1.50707,-0.13334 6.10447,-0.5829 10.21643,-0.999 9.7449,-0.98613 9.60934,-1.01421 13.72736,2.8431 3.95912,3.70845 79.45288,72.31627 81.24027,73.83017 0.75719,0.64132 2.60173,2.31114 4.09903,3.7107 1.49728,1.39957 3.07258,2.72578 3.50065,2.94715 0.8752,0.45258 2.36861,0.3995 7.09413,-0.25219 8.85531,-1.22119 17.04225,-1.19007 26.08903,0.0992 3.96299,0.56477 5.59455,0.60905 6.3488,0.17225 0.28982,-0.16783 1.59014,-1.2802 2.88955,-2.47191 1.29944,-1.1917 19.20754,-17.47376 39.79579,-36.18236 38.54236,-35.02351 45.34262,-41.21705 46.88382,-42.70071 0.49311,-0.47469 1.34114,-1.16811 1.8845,-1.54095 2.05271,-1.40842 1.74379,-1.41445 18.89285,0.36902 15.16157,1.57677 15.67422,1.64725 16.64142,2.2873 0.54887,0.36323 1.22273,1.10101 1.49745,1.6395 0.49567,0.97162 0.49983,1.71429 0.54249,97.5679 0.0343,77.31239 -0.0203,96.7114 -0.27398,97.20302 -0.51668,1.00122 -1.54103,1.96719 -2.36992,2.23485 -0.90835,0.29326 -14.60903,3.45045 -20.24834,4.66603 -2.14204,0.4617 -5.72587,1.2431 -7.9641,1.73639 l -4.06945,0.89688 h -8.36823 c -7.90697,0 -8.41336,-0.0284 -9.18713,-0.50024 -0.45042,-0.2746 -1.04362,-0.8678 -1.31821,-1.31822 -0.49396,-0.81012 -0.49933,-1.37358 -0.50025,-52.47137 0,-57.02113 0.11089,-53.15464 -1.59612,-55.14886 -1.84048,-2.15019 -5.25077,-2.89699 -7.62177,-1.66905 -0.91655,0.47469 -4.20821,3.2994 -8.062,6.91835 -0.65404,0.61417 -2.26295,2.06173 -3.57541,3.21681 -1.31244,1.15509 -4.47348,4.02234 -7.0245,6.37168 -2.55104,2.34935 -5.08355,4.66728 -5.6278,5.15097 -0.54426,0.48369 -5.72937,5.16592 -11.52247,10.40497 -11.80496,10.67593 -11.9928,10.83702 -13.39033,11.4825 -1.52182,0.70287 -2.88911,0.57758 -7.28673,-0.66769 -9.31992,-2.63918 -16.27342,-3.62303 -26.88551,-3.80408 -12.5201,-0.21357 -20.67049,0.82745 -31.79972,4.06168 -1.67561,0.48694 -3.57938,0.88534 -4.23062,0.88534 -2.30525,0 -2.97004,-0.51442 -16.23549,-12.56333 -2.05402,-1.86566 -5.61442,-5.08816 -7.91197,-7.1611 -2.29758,-2.07294 -7.72344,-6.99148 -12.05747,-10.93008 -13.06045,-11.86889 -14.16534,-12.84424 -15.08573,-13.31702 -2.4308,-1.24865 -5.28561,-0.76291 -7.28868,1.24016 -2.18208,2.18114 -2.00229,-2.80191 -2.00229,55.48985 0,57.7055 0.16096,52.8468 -1.78342,53.83874 -0.89948,0.45886 -1.49981,0.48837 -9.45073,0.46416 l -8.49026,-0.0258 z"
     id="path174" /></svg>
